<svg width="300" height="300" viewBox="0 0 300 300" xmlns="http://www.w3.org/2000/svg">
  <circle cx="150" cy="150" r="140" fill="#1e293b"/>
  <circle cx="150" cy="150" r="110" fill="none" stroke="#38bdf8" stroke-width="10" />

  <g stroke="#38bdf8" stroke-width="8" stroke-linecap="round">
    <line x1="150" y1="20"  x2="150" y2="60" />
    <line x1="150" y1="240" x2="150" y2="280" />
    <line x1="20"  y1="150" x2="60"  y2="150" />
    <line x1="240" y1="150" x2="280"  y2="150" />
    <line x1="58" y1="58" x2="86" y2="86" />
    <line x1="214" y1="214" x2="242" y2="242" />
    <line x1="214" y1="86" x2="242" y2="58" />
    <line x1="58" y1="242" x2="86" y2="214" />
  </g>

  <circle cx="150" cy="150" r="55" fill="#0f172a" />

  <g stroke="#0f172a" stroke-width="2" stroke-linejoin="round">
    <polygon fill="#7dd3fc" points="150,112.5 185,132.5 150,152.5 115,132.5" />
    <polygon fill="#38bdf8" points="115,132.5 150,152.5 150,187.5 115,167.5" />
    <polygon fill="#0ea5e9" points="185,132.5 150,152.5 150,187.5 185,167.5" />
  </g>

  <g stroke="#e0f2fe" stroke-width="3" stroke-linecap="round" fill="none">
    <path d="M95,95 L110,110 M98,108 L105,101 M108,98 L101,105" />
    <path d="M205,95 L190,110 M202,108 L195,101 M192,98 L199,105" />
    <path d="M95,205 L110,190 M98,192 L105,199 M108,202 L101,195" />
    <path d="M205,205 L190,190 M202,192 L195,199 M192,202 L199,195" />
  </g>
  <g fill="#e0f2fe">
    <circle cx="150" cy="80" r="2.5" />
    <circle cx="150" cy="220" r="2.5" />
    <circle cx="80" cy="150" r="2.5" />
    <circle cx="220" cy="150" r="2.5" />
  </g>
</svg>