<svg width="300" height="300" viewBox="0 0 300 300" xmlns="http://www.w3.org/2000/svg">
  <circle cx="150" cy="150" r="140" fill="#151d2e"/>

  <circle cx="150" cy="150" r="110" fill="none" stroke="#80d0f0" stroke-width="12" />

  <g fill="#ffffff">
    <path d="M145,10 L155,10 L159,55 L141,55 Z" transform="rotate(0, 150, 150)" />
    <path d="M145,10 L155,10 L159,55 L141,55 Z" transform="rotate(51.4, 150, 150)" />
    <path d="M145,10 L155,10 L159,55 L141,55 Z" transform="rotate(102.8, 150, 150)" />
    <path d="M145,10 L155,10 L159,55 L141,55 Z" transform="rotate(154.2, 150, 150)" />
    <path d="M145,10 L155,10 L159,55 L141,55 Z" transform="rotate(205.6, 150, 150)" />
    <path d="M145,10 L155,10 L159,55 L141,55 Z" transform="rotate(257, 150, 150)" />
    <path d="M145,10 L155,10 L159,55 L141,55 Z" transform="rotate(308.4, 150, 150)" />
  </g>

  <circle cx="150" cy="150" r="65" fill="#0e1626" />

  <g>
    <polygon fill="#c0e8f8" points="150,100 195,125 150,150 105,125" />
    <polygon fill="#80d0f0" points="105,125 150,150 150,200 105,175" />
    <polygon fill="#50a8c8" points="195,125 150,150 150,200 195,175" />
  </g>
</svg>
